<svg id="Group_1" data-name="Group 1" xmlns="http://www.w3.org/2000/svg" viewBox="0 0 336.419 83.278">
  <defs>
    <style>
      .cls-1 {
        opacity: 0.3;
      }

      .cls-2 {
        fill: #4ba091;
      }

      .cls-3 {
        fill: #ea4a33;
      }

      .cls-4, .cls-5, .cls-6 {
        fill: #fff;
      }

      .cls-5 {
        opacity: 0.7;
      }

      .cls-6 {
        opacity: 0.2;
      }
    </style>
  </defs>
  <ellipse id="Ellipse_1" data-name="Ellipse 1" class="cls-1" cx="29.439" cy="2.361" rx="29.439" ry="2.361" transform="translate(180.567 78.555)"/>
  <ellipse id="Ellipse_2" data-name="Ellipse 2" class="cls-1" cx="29.439" cy="2.361" rx="29.439" ry="2.361" transform="translate(266.049 78.555)"/>
  <ellipse id="Ellipse_3" data-name="Ellipse 3" class="cls-1" cx="29.439" cy="2.361" rx="29.439" ry="2.361" transform="translate(11.964 78.555)"/>
  <circle id="Ellipse_4" data-name="Ellipse 4" class="cls-2" cx="40.931" cy="40.931" r="40.931"/>
  <circle id="Ellipse_5" data-name="Ellipse 5" class="cls-2" cx="40.931" cy="40.931" r="40.931" transform="translate(169.705)"/>
  <circle id="Ellipse_6" data-name="Ellipse 6" class="cls-3" cx="40.931" cy="40.931" r="40.931" transform="translate(254.557)"/>
  <ellipse id="Ellipse_7" data-name="Ellipse 7" class="cls-1" cx="29.439" cy="2.361" rx="29.439" ry="2.361" transform="translate(95.557 78.555)"/>
  <circle id="Ellipse_8" data-name="Ellipse 8" class="cls-3" cx="40.931" cy="40.931" r="40.931" transform="translate(84.852)"/>
  <path id="Path_1" data-name="Path 1" class="cls-4" d="M124.841,21.674h0a4.169,4.169,0,0,1,5.038,2.834,2.679,2.679,0,0,1,.157,1.1v8.5a4.2,4.2,0,0,0,4.25,4.093h.157c4.408-.315,7.714-.472,11.964-.63a4.168,4.168,0,0,0,4.093-4.093v-.315c-.157-2.991-.472-5.51-.787-8.5a4.072,4.072,0,0,1,3.621-4.565h1.1a4.03,4.03,0,0,1,3.306,3.149,96.593,96.593,0,0,1,1.732,36.208,4.038,4.038,0,0,1-2.991,3.463h0a4.138,4.138,0,0,1-5.038-2.991,2.679,2.679,0,0,1-.157-1.1c.157-3.621.157-6.612,0-10.39a3.977,3.977,0,0,0-4.25-3.936h-.157c-4.408.315-7.714.472-12.122.63a4.167,4.167,0,0,0-3.936,4.25v.157c.315,3.778.472,6.769.945,10.39a4.186,4.186,0,0,1-3.621,4.565h-1.259a4.03,4.03,0,0,1-3.306-3.149,96.592,96.592,0,0,1-1.732-36.208A4.229,4.229,0,0,1,124.841,21.674Z" transform="translate(69.422 11.543)"/>
  <path id="Path_2" data-name="Path 2" class="cls-4" d="M175.526,38.014v-.472c-.945-13.224,7.714-23.771,21.1-24.716s23.456,7.714,24.558,20.938v.472c.945,13.224-7.242,23.771-20.938,24.873S176.47,51.08,175.526,38.014Zm36.838-2.991V34.55c-.787-9.288-6.454-15.743-15.27-15.113s-13.539,7.556-12.751,17.317v.472c.787,9.918,7.242,15.743,15.428,15.113,8.5-.63,13.381-7.556,12.594-17.317Z" transform="translate(100.757 7.325)"/>
  <path id="Path_3" data-name="Path 3" class="cls-4" d="M93.092,58.209a2.509,2.509,0,0,1-2.2,2.047,27.6,27.6,0,0,1-8.816,0,22.686,22.686,0,0,1-10.7-4.723A20.348,20.348,0,0,1,64.6,44.67a32.655,32.655,0,0,1,3.936-24.244,19.834,19.834,0,0,1,9.76-8.186,21.076,21.076,0,0,1,11.65-1.1,27.56,27.56,0,0,1,8.344,2.834A2.647,2.647,0,0,1,99.7,16.648h0a2.51,2.51,0,0,1-2.834,2.047c-.315,0-.472-.157-.787-.315a18.9,18.9,0,0,0-7.242-2.519,11.9,11.9,0,0,0-7.714,1.259,15.906,15.906,0,0,0-6.14,5.51A5.61,5.61,0,0,0,76.562,30.5a5.331,5.331,0,0,0,2.361.945l9.288,1.574A2.222,2.222,0,0,1,90.1,35.7h0a2.222,2.222,0,0,1-2.676,1.889l-9.918-1.574A5.817,5.817,0,0,0,70.9,40.734a3.837,3.837,0,0,0,0,1.889c.157.472.157.945.315,1.259a15.819,15.819,0,0,0,4.25,8.186A12.992,12.992,0,0,0,82.23,55.69a24.344,24.344,0,0,0,7.556-.157,2.452,2.452,0,0,1,2.834,1.889.857.857,0,0,1,.472.787Z" transform="translate(36.627 6.179)"/>
  <path id="Path_4" data-name="Path 4" class="cls-4" d="M53.511,16.57c-3.936,4.093-8.5,9.131-13.539,14.168a6.254,6.254,0,0,0-.315,8.344C44.38,44.434,48.158,49,51.779,53.25,54.3,56.4,53.2,58.6,49.26,58.13a41.886,41.886,0,0,0-4.723-.315A3.942,3.942,0,0,1,41.7,56.556C38.87,53.25,33.833,44.119,31.156,41.128S24.7,38.609,23.6,42.7c-.315,1.417,1.1,14.483-5.51,14.326a5.214,5.214,0,0,1-4.565-4.88C13.052,37.507,15.1,28.692,18.4,15.94a6.52,6.52,0,0,1,4.408-4.408c4.88-.945,5.352,5.825,4.565,14.168-.157,1.889,4.25,2.991,5.51,1.732C36.351,24.126,41.7,18.616,45.167,15c.945-.945,2.2-2.047,3.306-1.732l3.463.157a1.959,1.959,0,0,1,1.732,2.2A1.041,1.041,0,0,1,53.511,16.57Z" transform="translate(7.728 6.572)"/>
  <ellipse id="Ellipse_9" data-name="Ellipse 9" class="cls-5" cx="4.25" cy="9.76" rx="4.25" ry="9.76" transform="matrix(0.576, -0.818, 0.818, 0.576, 304.461, 11.55)"/>
  <ellipse id="Ellipse_10" data-name="Ellipse 10" class="cls-5" cx="4.25" cy="9.76" rx="4.25" ry="9.76" transform="matrix(0.576, -0.818, 0.818, 0.576, 220.044, 11.498)"/>
  <ellipse id="Ellipse_11" data-name="Ellipse 11" class="cls-5" cx="4.25" cy="9.76" rx="4.25" ry="9.76" transform="matrix(0.576, -0.818, 0.818, 0.576, 134.776, 11.609)"/>
  <ellipse id="Ellipse_12" data-name="Ellipse 12" class="cls-5" cx="4.25" cy="9.76" rx="4.25" ry="9.76" transform="matrix(0.576, -0.818, 0.818, 0.576, 49.879, 11.512)"/>
  <ellipse id="Ellipse_13" data-name="Ellipse 13" class="cls-6" cx="18.261" cy="22.827" rx="18.261" ry="22.827" transform="matrix(0.089, -0.996, 0.996, 0.089, 6.416, 42.911)"/>
  <ellipse id="Ellipse_14" data-name="Ellipse 14" class="cls-6" cx="18.261" cy="22.827" rx="18.261" ry="22.827" transform="matrix(0.089, -0.996, 0.996, 0.089, 91.387, 42.865)"/>
  <ellipse id="Ellipse_15" data-name="Ellipse 15" class="cls-6" cx="18.261" cy="22.827" rx="18.261" ry="22.827" transform="matrix(0.089, -0.996, 0.996, 0.089, 176.664, 42.81)"/>
  <ellipse id="Ellipse_16" data-name="Ellipse 16" class="cls-6" cx="18.261" cy="22.827" rx="18.261" ry="22.827" transform="matrix(0.089, -0.996, 0.996, 0.089, 260.62, 42.859)"/>
</svg>
