<svg id="Group_33" data-name="Group 33" xmlns="http://www.w3.org/2000/svg" xmlns:xlink="http://www.w3.org/1999/xlink" viewBox="0 0 264.1 236.035">
  <defs>
    <style>
      .cls-1 {
        fill: rgba(0,0,0,0);
      }

      .cls-2 {
        clip-path: url(#clip-path);
      }

      .cls-3 {
        fill: #febd35;
      }

      .cls-4 {
        fill: #3598fe;
      }

      .cls-5 {
        fill: #fff;
        opacity: 0.2;
      }
    </style>
    <clipPath id="clip-path">
      <circle id="Ellipse_10" data-name="Ellipse 10" cx="97.179" cy="97.179" r="97.179"/>
    </clipPath>
  </defs>
  <g id="Group_32" data-name="Group 32">
    <circle id="Ellipse_8" data-name="Ellipse 8" class="cls-1" cx="97.179" cy="97.179" r="97.179" transform="translate(35.395 41.678)"/>
    <circle id="Ellipse_9" data-name="Ellipse 9" class="cls-1" cx="97.179" cy="97.179" r="97.179" transform="translate(35.395 41.678)"/>
    <g id="Group_30" data-name="Group 30" transform="translate(35.395 41.678)">
      <g id="Group_29" data-name="Group 29" class="cls-2">
        <path id="Path_55" data-name="Path 55" d="M167.7,147.8c0,38.118-31,57.6-58.014,67.439a170.828,170.828,0,0,1-39.374,9.215L41.624,188.644h0s82.518,33.3,82.518-38.118c0-31.416-23.666-44.191-50.265-48.589l34.767-46.5H54.609a56.983,56.983,0,0,0-24.295,5.236H30.1a19.875,19.875,0,0,0-7.121,4.608c-2.513,3.979,0-39.165,0-39.165L54.818,19H129.8l14.661,2.094,1.047,7.33h0L106.968,81.412S167.7,80.365,167.7,147.8Z" transform="translate(-11.465 -20.885)"/>
      </g>
    </g>
    <path id="Path_56" data-name="Path 56" class="cls-3" d="M129.47,131.594c0,71.209-82.518,38.118-82.518,38.118h0A97.607,97.607,0,0,1,35.642,41.536h.209A56.983,56.983,0,0,1,60.146,36.3h54.035L79.2,83C105.8,87.4,129.47,100.178,129.47,131.594Z" transform="translate(18.393 39.726)"/>
    <path id="Path_57" data-name="Path 57" class="cls-4" d="M161.354,113.358c0,53.2-42.935,96.76-96.132,97.179,27.017-9.844,58.014-29.321,58.014-67.439,0-67.648-60.737-66.392-60.737-66.392L101.036,23.3h0A97.845,97.845,0,0,1,161.354,113.358Z" transform="translate(68.398 25.499)"/>
    <g id="Group_31" data-name="Group 31">
      <path id="Path_58" data-name="Path 58" class="cls-4" d="M29.112,48.959l-16.964.209L24.714,60.687l-2.932,8.168L0,47.493l1.885-5.026L32.044,41Z" transform="translate(0 44.869)"/>
      <path id="Path_59" data-name="Path 59" class="cls-4" d="M31.741,26.3a17.025,17.025,0,0,1,3.77,3.979A10.486,10.486,0,0,1,37.4,35.3a17.221,17.221,0,0,1-.419,5.655,16.818,16.818,0,0,1-3.142,6.074,26.972,26.972,0,0,1-3.351,3.56,20.751,20.751,0,0,1-3.56,2.3,10.044,10.044,0,0,1-3.56,1.047,10.167,10.167,0,0,1-3.56,0A8.972,8.972,0,0,1,16.452,52.9a22.891,22.891,0,0,1-3.142-1.675,12.176,12.176,0,0,1-3.56-3.77,10.486,10.486,0,0,1-1.885-5.026,13.944,13.944,0,0,1,.419-5.864,17.737,17.737,0,0,1,3.142-6.283,18.353,18.353,0,0,1,5.026-4.817A17.273,17.273,0,0,1,21.9,23.365a11.169,11.169,0,0,1,5.236.419A25.018,25.018,0,0,1,31.741,26.3ZM18.128,44.309a7.078,7.078,0,0,0,2.513,1.257,5.157,5.157,0,0,0,2.513.209,11.807,11.807,0,0,0,2.513-.838,10.065,10.065,0,0,0,3.56-4.817,11.064,11.064,0,0,0,.209-2.723,11.808,11.808,0,0,0-.838-2.513,18.883,18.883,0,0,0-1.885-2.094A7.078,7.078,0,0,0,24.2,31.533a5.157,5.157,0,0,0-2.513-.209,11.808,11.808,0,0,0-2.513.838,10.977,10.977,0,0,0-2.3,2.094,11.284,11.284,0,0,0-1.466,2.723,6.124,6.124,0,0,0,.838,5.026A4.214,4.214,0,0,0,18.128,44.309Z" transform="translate(8.471 25.433)"/>
      <path id="Path_60" data-name="Path 60" class="cls-4" d="M39.81,9.4l3.56,4.817-7.959,6.074L48.187,37.255l-6.493,5.026L28.919,25.317,20.96,31.391,17.4,26.574Z" transform="translate(19.042 10.287)"/>
      <path id="Path_61" data-name="Path 61" class="cls-4" d="M63.621,12.606a15.732,15.732,0,0,1,1.047,5.445,14.583,14.583,0,0,1-1.047,5.236,18.6,18.6,0,0,1-3.351,4.608,16.435,16.435,0,0,1-5.864,3.351A18.884,18.884,0,0,1,49.8,32.5a14.041,14.041,0,0,1-4.189,0,17.691,17.691,0,0,1-3.56-1.047C41,30.827,39.955,30.2,39.117,29.57a25.1,25.1,0,0,1-2.3-2.513A15.1,15.1,0,0,1,34.3,18.679a14.583,14.583,0,0,1,1.047-5.236A14.481,14.481,0,0,1,38.7,8.836a11.568,11.568,0,0,1,5.445-3.979,18.141,18.141,0,0,1,6.7-1.257A13.823,13.823,0,0,1,56.5,4.857,15.691,15.691,0,0,1,60.689,8,13.311,13.311,0,0,1,63.621,12.606ZM42.468,20.564a15.622,15.622,0,0,0,1.466,2.513,8.2,8.2,0,0,0,2.094,1.675,5.577,5.577,0,0,0,2.513.628,6.69,6.69,0,0,0,2.932-.628A7.389,7.389,0,0,0,54.2,23.078a8.2,8.2,0,0,0,1.675-2.094,5.313,5.313,0,0,0,.419-2.513,5.8,5.8,0,0,0-.628-2.723A15.621,15.621,0,0,0,54.2,13.234a6.451,6.451,0,0,0-7.54-1.466,7.242,7.242,0,0,0-2.513,1.466,8.2,8.2,0,0,0-1.675,2.094,4.774,4.774,0,0,0-.628,2.3A6.689,6.689,0,0,0,42.468,20.564Z" transform="translate(37.537 3.94)"/>
      <path id="Path_62" data-name="Path 62" class="cls-4" d="M86.183.838l-.209,6.074L75.921,6.7l-.628,21.153-8.168-.209.628-21.363L57.7,6.074,57.909,0Z" transform="translate(63.145)"/>
      <path id="Path_63" data-name="Path 63" class="cls-4" d="M93.644,5.379a19.656,19.656,0,0,1,3.142,1.257A8.2,8.2,0,0,1,98.88,8.311a11.509,11.509,0,0,1,1.466,1.885,7.979,7.979,0,0,1,.628,2.094,3.569,3.569,0,0,1,0,2.094,6.115,6.115,0,0,1-.419,1.885,4.21,4.21,0,0,1-.838,1.675c-.419.628-.838,1.047-1.257,1.675a5.645,5.645,0,0,1-1.675,1.466,7.5,7.5,0,0,1-2.3.838,11.942,11.942,0,0,1-2.723.209,9.486,9.486,0,0,1-3.351-.628L83.172,20.04l-2.513,9.844L72.7,27.58,80.449,1.4Zm-6.7,3.351-1.885,6.283,1.676.419c.838.209,1.675.419,2.3.628a2.313,2.313,0,0,0,1.675,0,1.781,1.781,0,0,0,1.047-.628,1.9,1.9,0,0,0,.628-1.466,4.611,4.611,0,0,0,.209-1.675,1.81,1.81,0,0,0-.628-1.257A3.757,3.757,0,0,0,90.5,9.987a10.209,10.209,0,0,0-2.3-.838Z" transform="translate(79.561 1.532)"/>
      <path id="Path_64" data-name="Path 64" class="cls-4" d="M105.2,10.47,92.63,34.765l-7.33-3.77L97.866,6.7Z" transform="translate(93.35 7.332)"/>
      <path id="Path_65" data-name="Path 65" class="cls-4" d="M132.031,30.568,114.229,51.3l-6.283-5.236L118,34.129,97.055,36.851,91.4,32.034,109.2,11.3l6.283,5.445L105.432,28.474l20.944-2.723Z" transform="translate(100.025 12.366)"/>
      <path id="Path_66" data-name="Path 66" class="cls-4" d="M134.259,48.638a4.568,4.568,0,0,0-.838-1.047c-.209-.209-.628-.419-.838-.628a2.656,2.656,0,0,0-1.257-.209h-3.979c-.419,0-1.047-.209-1.466-.209-.419-.209-.838-.209-1.257-.628-.419-.209-.838-.628-1.257-.838A4.855,4.855,0,0,1,124,48.429a9.442,9.442,0,0,1-.628,2.3c-.419,1.047-.838,2.094-1.257,2.932l-4.189,8.587L112.9,54.5l3.979-7.749a9.107,9.107,0,0,1,.838-1.466c.209-.419.209-.838.419-1.257V42.983l-.628-1.257-8.8,5.864L104.1,40.679,126.929,25.6l4.608,6.911-8.377,5.445c.209.209.419.628.628.838a1.6,1.6,0,0,0,1.047.419c.628,0,1.047.209,1.675.209h5.236c.628,0,1.466.209,2.094.209.628.209,1.047.419,1.675.628a6.364,6.364,0,0,1,1.466,1.047,5.04,5.04,0,0,1,1.257,1.675,22.076,22.076,0,0,1,1.466,2.3Z" transform="translate(113.924 28.016)"/>
      <path id="Path_67" data-name="Path 67" class="cls-4" d="M119.287,51.177l-6.074-.419L110.7,42.8l29.531,3.351,2.723,8.587-22.41,19.687-2.513-7.959,4.608-3.77Zm7.54,8.168,8.377-6.7-10.681-.838Z" transform="translate(121.147 46.839)"/>
    </g>
    <circle id="Ellipse_11" data-name="Ellipse 11" class="cls-4" cx="4.398" cy="4.398" r="4.398" transform="translate(221.794 23.248)"/>
  </g>
  <ellipse id="Ellipse_12" data-name="Ellipse 12" class="cls-5" cx="74.56" cy="52.778" rx="74.56" ry="52.778" transform="translate(56.339 45.657)"/>
</svg>
