<svg id="Group_15" data-name="Group 15" xmlns="http://www.w3.org/2000/svg" viewBox="0 0 323.583 219.8">
  <defs>
    <style>
      .cls-1 {
        opacity: 0.2;
      }

      .cls-2 {
        fill: #61c18e;
      }

      .cls-3, .cls-4 {
        fill: #fff;
      }

      .cls-4 {
        opacity: 0.3;
      }
    </style>
  </defs>
  <ellipse id="Ellipse_1" data-name="Ellipse 1" class="cls-1" cx="24.891" cy="4.43" rx="24.891" ry="4.43" transform="translate(27.633 210.94)"/>
  <ellipse id="Ellipse_2" data-name="Ellipse 2" class="cls-1" cx="24.891" cy="4.43" rx="24.891" ry="4.43" transform="translate(27.633 101.673)"/>
  <ellipse id="Ellipse_3" data-name="Ellipse 3" class="cls-1" cx="24.891" cy="4.43" rx="24.891" ry="4.43" transform="translate(136.9 210.94)"/>
  <ellipse id="Ellipse_4" data-name="Ellipse 4" class="cls-1" cx="24.891" cy="4.43" rx="24.891" ry="4.43" transform="translate(246.378 210.94)"/>
  <path id="Path_1" data-name="Path 1" class="cls-2" d="M104.837,105.924A52.34,52.34,0,1,1,95.978,76.6h0A53.237,53.237,0,0,1,104.837,105.924Z" transform="translate(0 59.242)"/>
  <circle id="Ellipse_5" data-name="Ellipse 5" class="cls-2" cx="52.524" cy="52.524" r="52.524" transform="translate(0 3.164)"/>
  <circle id="Ellipse_6" data-name="Ellipse 6" class="cls-2" cx="52.524" cy="52.524" r="52.524" transform="translate(109.267 112.642)"/>
  <circle id="Ellipse_7" data-name="Ellipse 7" class="cls-2" cx="52.524" cy="52.524" r="52.524" transform="translate(218.534 112.642)"/>
  <g id="Group_13" data-name="Group 13" transform="translate(114.963 0)">
    <g id="Group_5" data-name="Group 5">
      <g id="Group_1" data-name="Group 1" transform="translate(0 1.055)">
        <path id="Path_2" data-name="Path 2" class="cls-3" d="M59.63,57.521a13.926,13.926,0,0,1-2.953-.211L55.2,57.1V44.232l1.688.211c.633,0,1.266.211,1.9.211,2.953,0,5.906-1.266,5.906-10.547V1.2h39.024V57.31h-13.5V14.278H77.982V33.9C78.193,53.513,68.067,57.521,59.63,57.521Z" transform="translate(-53.723 0.277)"/>
        <path id="Path_3" data-name="Path 3" class="cls-2" d="M103.227,3.664V56.821H92.891V13.578h-15.4V34.672c0,17.3-8.227,22.149-17.086,22.149a12.028,12.028,0,0,1-2.742-.211v-9.7c.633,0,1.266.211,2.109.211,4.641,0,7.383-2.953,7.383-12.235V3.664ZM106.391.5h-42.4V34.883c0,9.07-2.531,9.07-4.219,9.07a4.645,4.645,0,0,1-1.688-.211L54.5,43.321V59.352l2.742.211a14.943,14.943,0,0,0,2.953.211c7.594,0,20.25-3.375,20.25-25.313V16.742h9.07V59.774H106.18L106.391.5Z" transform="translate(-54.5 -0.5)"/>
      </g>
      <g id="Group_2" data-name="Group 2" transform="translate(49.561)">
        <path id="Path_4" data-name="Path 4" class="cls-3" d="M107.51,59.02a29.11,29.11,0,1,1,29.11-29.11h0a28.9,28.9,0,0,1-28.477,29.11Zm0-45.141c-8.016,0-13.922,6.75-13.922,15.821s5.906,15.821,13.922,15.821,13.922-6.75,13.922-15.821-5.7-15.61-13.922-15.821v0Z" transform="translate(-77.547 0.888)"/>
        <path id="Path_5" data-name="Path 5" class="cls-2" d="M107.959,3.164h0a27.646,27.646,0,0,1,0,55.266h0a27.646,27.646,0,0,1,0-55.266Zm0,44.93h0c8.649,0,15.4-7.172,15.4-17.3s-6.75-17.508-15.4-17.508h0c-8.649,0-15.4,7.172-15.4,17.508S99.31,48.094,107.959,48.094Zm0-48.094h0a30.7,30.7,0,0,0,0,61.384h.211A30.7,30.7,0,0,0,108.17,0h-.211Zm0,44.93c-7.172,0-12.445-6.117-12.445-14.344s5.063-14.344,12.235-14.344h.211c7.172,0,12.445,6.117,12.445,14.344S115.131,44.93,107.959,44.93Z" transform="translate(-77.995 0)"/>
      </g>
      <g id="Group_3" data-name="Group 3" transform="translate(142.586)">
        <path id="Path_6" data-name="Path 6" class="cls-3" d="M151.61,59.02a29.11,29.11,0,1,1,29.11-29.11h0a28.9,28.9,0,0,1-28.477,29.11Zm0-45.141c-8.016,0-13.922,6.75-13.922,15.821s5.906,15.821,13.922,15.821,13.922-6.75,13.922-15.821-5.906-15.61-13.922-15.821Z" transform="translate(-121.647 0.888)"/>
        <path id="Path_7" data-name="Path 7" class="cls-2" d="M152.059,3.164h0a27.646,27.646,0,0,1,0,55.266h0a27.611,27.611,0,0,1-26.789-28.477A27.245,27.245,0,0,1,152.059,3.164Zm0,44.93h0c8.649,0,15.4-7.172,15.4-17.3s-6.75-17.508-15.4-17.508h0c-8.649,0-15.4,7.172-15.4,17.508S143.41,48.094,152.059,48.094Zm0-48.094h0a30.7,30.7,0,0,0,0,61.384h.211A30.7,30.7,0,0,0,152.27,0h-.211Zm0,44.93c-7.172,0-12.445-6.117-12.445-14.344s5.063-14.344,12.445-14.344h.211c7.172,0,12.445,6.117,12.445,14.344S159.231,44.93,152.059,44.93Z" transform="translate(-122.095 0)"/>
      </g>
      <g id="Group_4" data-name="Group 4" transform="translate(104.416 1.055)">
        <path id="Path_8" data-name="Path 8" class="cls-3" d="M118.933,57.521V14.278H104.8V1.2h42.188V14.278H132.644V57.521Z" transform="translate(-103.112 0.277)"/>
        <path id="Path_9" data-name="Path 9" class="cls-2" d="M146.188,3.664v9.914H131.844V56.61H121.508V13.578H107.164V3.664ZM149.352.5H104V16.742h14.344V59.774h16.664V16.742H146.4l2.32-.844.844-2.109V.5Z" transform="translate(-104 -0.5)"/>
      </g>
    </g>
    <g id="Group_6" data-name="Group 6" transform="translate(0.844 63.915)">
      <path id="Path_10" data-name="Path 10" class="cls-3" d="M78.682,61.375V50.828L75.307,61.375H68.135L64.759,50.828V61.375H55.9V31H66.658l5.063,14.766L76.783,31H87.541V61.375Z" transform="translate(-53.791 -29.523)"/>
      <path id="Path_11" data-name="Path 11" class="cls-2" d="M87.174,33.464V60.675h-5.7V41.691L75.361,60.675H70.51L64.392,41.691V60.675H58.7V33.464h8.016L73.041,51.6l6.328-18.141h7.8M90.338,30.3h-13.5l-.844,2.109L72.619,41.9l-3.375-9.492L68.4,30.3H54.9V63.84H66.924v-1.9l.633,1.9h9.492l.633-2.109V63.84H89.705l.633-33.54Z" transform="translate(-54.9 -30.3)"/>
    </g>
    <g id="Group_7" data-name="Group 7" transform="translate(140.275 63.915)">
      <path id="Path_12" data-name="Path 12" class="cls-3" d="M144.693,61.375V50.828l-3.375,10.547h-7.383L130.56,50.828V61.375H121.7V31h10.758l5.274,14.766L142.794,31h10.758V61.375Z" transform="translate(-120.223 -29.523)"/>
      <path id="Path_13" data-name="Path 13" class="cls-2" d="M152.641,33.464V60.675h-5.7V41.691l-6.117,18.985h-4.852l-6.117-18.985V60.675h-5.7V33.464h8.016L138.508,51.6l6.328-18.141h7.8m3.375-3.164h-13.5l-.844,2.109L138.508,41.9l-3.375-9.492-.844-2.109H121V63.84h12.024v-1.9l.633,1.9h9.492l.633-2.109V63.84h12.024l.211-33.54Z" transform="translate(-121 -30.3)"/>
    </g>
    <g id="Group_8" data-name="Group 8" transform="translate(31.219 63.915)">
      <path id="Path_14" data-name="Path 14" class="cls-3" d="M92.971,61.375,91.283,56.1H82l-1.9,5.274H70.4L82,31h9.281l11.391,30.375Zm-4.43-13.922-1.9-5.484-1.9,5.484Z" transform="translate(-68.08 -29.523)"/>
      <path id="Path_15" data-name="Path 15" class="cls-2" d="M91.449,33.464l10.336,27.211H95.457L93.769,55.4h-11.6L80.48,60.675H74.363L84.7,33.464h6.75M83.855,49.917h8.016L87.863,37.894,83.855,49.917M93.769,30.3h-11.6l-.844,2.109L70.988,59.621,69.3,63.84H82.378l.633-2.109,1.055-3.164h7.172l1.055,3.164.633,2.109H106l-1.688-4.219L93.98,32.409,93.769,30.3Z" transform="translate(-69.3 -30.3)"/>
    </g>
    <g id="Group_9" data-name="Group 9" transform="translate(63.282 63.915)">
      <path id="Path_16" data-name="Path 16" class="cls-3" d="M102.175,61.375,94.16,50.828V61.375H85.3V31H94.16v8.438l7.8-8.438h10.758L100.488,44.711l12.446,16.664Z" transform="translate(-83.612 -29.523)"/>
      <path id="Path_17" data-name="Path 17" class="cls-2" d="M110.235,33.464,99.477,45.488l11.18,14.977h-6.75L93.36,46.753V60.464h-5.7v-27h5.7V44.222l10.125-10.758h6.75m7.172-3.164H102.219l-.844,1.055-4.641,4.852V30.3H84.5V63.84H96.524V56.246l4.852,6.328,1.055,1.266h14.555l-3.8-5.063-9.7-12.867,9.07-10.125,4.852-5.484Z" transform="translate(-84.5 -30.3)"/>
    </g>
    <g id="Group_10" data-name="Group 10" transform="translate(112.009 63.915)">
      <path id="Path_18" data-name="Path 18" class="cls-3" d="M125.275,61.375V46.821L115.15,61.375H108.4V31h8.859V43.867L127.6,31h6.75V61.375Z" transform="translate(-106.712 -29.523)"/>
      <path id="Path_19" data-name="Path 19" class="cls-2" d="M133.546,33.464V60.675h-5.7V42.745L115.4,60.675h-4.43V33.464h5.7V49.285l12.656-15.821h4.219M136.71,30.3h-9.07l-1.055,1.266-6.961,8.649V30.3H107.6V63.84h9.281l.844-1.266,6.75-9.7V63.84H136.5l.211-33.54Z" transform="translate(-107.6 -30.3)"/>
    </g>
    <g id="Group_11" data-name="Group 11" transform="translate(170.018 63.915)">
      <path id="Path_20" data-name="Path 20" class="cls-3" d="M158.971,61.375,157.283,56.1h-9.492L146.1,61.375h-9.7L147.791,31h9.281l11.391,30.375ZM154.33,47.453l-1.9-5.484-1.9,5.484Z" transform="translate(-133.658 -29.523)"/>
      <path id="Path_21" data-name="Path 21" class="cls-2" d="M157.46,33.464,167.8,60.675h-6.328L159.78,55.4h-11.6l-1.688,5.274h-6.328L150.5,33.464h6.961m-7.594,16.453h8.016l-4.008-12.024-4.008,12.024m9.7-19.617h-11.6l-.844,2.109L136.788,59.621,135.1,63.84h13.078l.633-2.109,1.055-3.164h7.172l1.055,3.164.633,2.109H171.8l-1.688-4.219L159.78,32.409l-.211-2.109Z" transform="translate(-135.1 -30.3)"/>
    </g>
    <g id="Group_12" data-name="Group 12" transform="translate(85.22 63.915)">
      <path id="Path_22" data-name="Path 22" class="cls-3" d="M112.475,61.9c-9.492,0-16.875-6.539-16.875-15.4s7.172-15.4,16.875-15.4H120.7v8.227h-8.227c-4.852,0-8.016,2.742-8.016,7.172s3.164,7.172,8.016,7.172H120.7V61.9Z" transform="translate(-94.123 -29.412)"/>
      <path id="Path_23" data-name="Path 23" class="cls-2" d="M119.791,33.464v5.063h-6.539c-5.7,0-9.492,3.586-9.492,8.649s3.8,8.649,9.492,8.649h6.539v5.063h-6.539c-8.859,0-15.188-6.117-15.188-13.922s6.328-13.922,15.188-13.922l6.539.422m3.164-3.164h-9.7C102.7,30.3,94.9,37.683,94.9,47.386s8.016,17.086,18.352,17.086h9.7v-11.6h-9.7c-4.008,0-6.328-2.109-6.328-5.484s2.32-5.484,6.328-5.484h9.7Z" transform="translate(-94.9 -30.3)"/>
    </g>
  </g>
  <path id="Path_24" data-name="Path 24" class="cls-3" d="M42.834,46.472c-5.484,9.492-15.4,12.867-25.946,11.6C9.505,57.23,6.341,53.433,4.443,46.683A4.582,4.582,0,0,1,7.4,41.62a14.533,14.533,0,0,1,1.688-.633,4.282,4.282,0,0,1,5.484,2.32,7.65,7.65,0,0,0,5.906,4.43c4.641.633,9.281-.211,12.024-4.43s.211-6.961-3.375-8.649-6.539-2.32-9.914-3.8A4.088,4.088,0,0,1,17.1,25.589a2.912,2.912,0,0,1,.633-.844c4.008-6.117,7.8-11.391,11.6-17.508a4.5,4.5,0,0,1,5.7-1.266c7.172,2.531,15.61,6.75,22.36,8.859,2.953.844,2.742,5.274,2.531,5.274a4.544,4.544,0,0,1-5.063,4.008,3,3,0,0,1-1.266-.422c-4.852-1.477-8.227-3.586-12.656-5.063A6.726,6.726,0,0,0,34.4,19.682l-.422.422a3.814,3.814,0,0,0,.844,5.484c.211.211.211.211.422.211.211.211.633.211.844.422C44.31,31.495,48.318,37.19,42.834,46.472Z" transform="translate(4.839 6.052)"/>
  <path id="Path_25" data-name="Path 25" class="cls-3" d="M104.551,101.823c-1.266,2.531-2.531,5.484-4.008,8.016-.422.844-.844,1.055-1.9.633a47.47,47.47,0,0,0-5.063-1.688c-1.055-.211-1.477,0-1.9.633-1.688,2.742-2.953,6.117-4.641,8.649a1.435,1.435,0,0,1-1.688.844h-.211c-3.586-1.055-7.8-2.531-11.18-3.8-.633-.211-1.266-.844-1.055-1.477,0-.211.211-.422.211-.633,1.055-2.531,2.953-5.484,4.008-8.016a1.374,1.374,0,0,0-.422-1.9.736.736,0,0,1-.422-.211c-5.906-2.32-12.235-4.43-17.93-6.961A1.586,1.586,0,0,1,57.3,94.44c0-.211,0-.211.211-.422,1.055-3.164,2.531-6.328,3.586-9.492,0-.422.211-.633.633-.844C75.652,75.456,88.1,68.705,101.808,60.057a1.4,1.4,0,0,1,1.266-.211c3.375,1.266,6.961,2.531,10.125,3.8,1.055.422,1.266,1.055.844,2.109-5.484,10.547-10.125,19.617-15.4,30.375-.422,1.055-.211,1.688.844,2.109s3.375,1.055,4.219,1.477A1.483,1.483,0,0,1,104.551,101.823ZM88.1,79.252c-4.008,2.32-9.07,5.274-13.078,7.8-1.266.844-1.055,2.109.211,2.531,2.109.844,5.063,2.109,7.172,2.742a1.449,1.449,0,0,0,1.9-.633h0c1.9-3.375,4.219-7.383,5.906-10.758.633-1.266-.633-2.531-2.109-1.688Z" transform="translate(63.569 66.296)"/>
  <path id="Path_26" data-name="Path 26" class="cls-3" d="M156.592,67.341l1.266,5.906a3.977,3.977,0,0,1-2.32,4.43L145.2,81.685a3.72,3.72,0,0,0-2.32,4.219l.211,1.688a3.732,3.732,0,0,0,4.219,2.953h0a18.444,18.444,0,0,1,7.594-.211,17.378,17.378,0,0,1,8.016,4.219,20.772,20.772,0,0,1,4.219,6.328,19.462,19.462,0,0,1,1.055,7.8,21.529,21.529,0,0,1-2.109,8.016,19.081,19.081,0,0,1-5.273,6.961,27,27,0,0,1-8.227,5.063,37.289,37.289,0,0,1-6.539,1.688,59.59,59.59,0,0,1-6.117.422H137.4a4.04,4.04,0,0,1-3.586-3.586l-.211-5.063a3.742,3.742,0,0,1,3.586-3.8h.422a15.583,15.583,0,0,0,4.43,0,16.914,16.914,0,0,0,4.43-1.055,12.046,12.046,0,0,0,4.43-2.742,8.437,8.437,0,0,0,2.109-3.8,8.614,8.614,0,0,0-.211-4.008,7.578,7.578,0,0,0-6.539-4.852,13.876,13.876,0,0,0-5.906.844,19.284,19.284,0,0,0-2.953,1.477,3.64,3.64,0,0,1-5.063-1.477c-.211-.422-.422-.633-.422-1.055l-2.531-12.656a17.866,17.866,0,0,1,11.18-20.25l10.547-4.008a3.916,3.916,0,0,1,4.852,2.109C156.381,66.919,156.592,67.13,156.592,67.341Z" transform="translate(143.154 71.669)"/>
  <path id="Path_27" data-name="Path 27" class="cls-4" d="M90.353,85.131c0,17.3-19.2,31.219-43.032,31.219S4.5,102.429,4.5,85.131a20.884,20.884,0,0,1,1.9-8.859,49.352,49.352,0,0,1,68.767-13.5,51.36,51.36,0,0,1,13.5,13.5h0A24.517,24.517,0,0,1,90.353,85.131Z" transform="translate(4.992 60.207)"/>
  <path id="Path_28" data-name="Path 28" class="cls-4" d="M141.72,84.977c0,17.086-18.985,31.008-42.61,31.008S56.5,102.064,56.5,84.977a25.41,25.41,0,0,1,1.688-8.859,49.213,49.213,0,0,1,68.345-13.289,49.781,49.781,0,0,1,13.289,13.289h0A20.884,20.884,0,0,1,141.72,84.977Z" transform="translate(62.681 60.361)"/>
  <path id="Path_29" data-name="Path 29" class="cls-4" d="M194.264,85.131c0,17.3-19.2,31.43-43.032,31.43S108.2,102.639,108.2,85.131a20.884,20.884,0,0,1,1.9-8.859,49.637,49.637,0,0,1,68.978-13.5,51.359,51.359,0,0,1,13.5,13.5h0A24.518,24.518,0,0,1,194.264,85.131Z" transform="translate(120.038 60.207)"/>
  <path id="Path_30" data-name="Path 30" class="cls-4" d="M90.353,33.183c0,17.3-19.2,31.219-43.032,31.219S4.5,50.48,4.5,33.183a20.884,20.884,0,0,1,1.9-8.859,49.538,49.538,0,0,1,68.767-13.5,51.36,51.36,0,0,1,13.5,13.5h0A25.41,25.41,0,0,1,90.353,33.183Z" transform="translate(4.992 2.677)"/>
  <g id="Group_14" data-name="Group 14" transform="translate(50.128 152.088)">
    <path id="Path_31" data-name="Path 31" class="cls-3" d="M23.84,78.217a4.41,4.41,0,0,1,.844-3.586,5.244,5.244,0,0,1,3.375-2.32,4.969,4.969,0,0,1,4.219.633A4.361,4.361,0,0,1,34.387,75.9a4.41,4.41,0,0,1-.844,3.586,5.7,5.7,0,0,1-3.586,2.109,5.308,5.308,0,0,1-4.008-.633A4.1,4.1,0,0,1,23.84,78.217Zm7.383,6.961h0a3.53,3.53,0,0,1,3.164.844,5.6,5.6,0,0,1,2.32,3.8l4.43,21.3a5.858,5.858,0,0,1-.844,4.641,4.2,4.2,0,0,1-2.531,1.688h0a4.89,4.89,0,0,1-3.375-.633,5.942,5.942,0,0,1-3.164-4.219L27,92.35a5.524,5.524,0,0,1,.844-4.43,4.92,4.92,0,0,1,3.375-2.742Z" transform="translate(-23.764 -72.1)"/>
    <path id="Path_32" data-name="Path 32" class="cls-3" d="M40.054,94.3h0a1.976,1.976,0,0,1,1.688-2.32l2.953-.422a13.642,13.642,0,0,0,2.742-.844,14.188,14.188,0,0,0,2.32-1.477,5.686,5.686,0,0,0,1.477-1.688,2.978,2.978,0,0,0,.211-1.9,3.967,3.967,0,0,0-2.531-3.164,15.979,15.979,0,0,0-6.328,0,20.06,20.06,0,0,0-5.063,1.477,21.878,21.878,0,0,0-2.109.844,2.307,2.307,0,0,1-2.742-.844l-.211-.422a2.271,2.271,0,0,1,.633-2.953h0A31.987,31.987,0,0,1,43.64,77.427a18.068,18.068,0,0,1,9.492.422,6.247,6.247,0,0,1,4.008,5.274,3.6,3.6,0,0,1,0,2.109,10.283,10.283,0,0,1-.844,2.32,8.259,8.259,0,0,1-1.688,2.109,17.6,17.6,0,0,1-2.531,1.688v.422a10.191,10.191,0,0,1,6.539,1.688A7.332,7.332,0,0,1,61.148,98.1a7.851,7.851,0,0,1-.422,3.8,7.955,7.955,0,0,1-2.531,3.375,14.968,14.968,0,0,1-4.641,2.742,35.464,35.464,0,0,1-6.75,1.9,32.2,32.2,0,0,1-6.328.633,10.27,10.27,0,0,1-2.531-.211,2.472,2.472,0,0,1-1.9-2.32v-.633a2.09,2.09,0,0,1,2.32-1.688h2.32a47.994,47.994,0,0,0,5.484-.422c5.906-1.055,8.649-3.164,8.016-6.75a3.856,3.856,0,0,0-2.742-3.164,15.425,15.425,0,0,0-7.594,0l-1.477.422A1.943,1.943,0,0,1,40.054,94.3Z" transform="translate(-14.454 -66.669)"/>
  </g>
</svg>
