<svg id="Layer_1" data-name="Layer 1" xmlns="http://www.w3.org/2000/svg" viewBox="0 0 41.42 49"><defs><style>.cls-1{fill:#d90000;}.cls-2{fill:#ffdb00;}.cls-3{fill:#ff8700;}.cls-4{fill:#9fbbfc;}.cls-5{fill:#fff;}</style></defs><title>SPEED_ICON</title><path class="cls-1" d="M5.32,8.86a11.57,11.57,0,0,1,2.13-.61l-1-3.65A21.13,21.13,0,0,0,4,6.82Z"/><path class="cls-1" d="M7.78,3.61l1,4.48c.3,0,.6,0,.9,0a11.87,11.87,0,0,1,1.25.08l.45-6.46A21.43,21.43,0,0,0,7.78,3.61Z"/><path class="cls-2" d="M18.15,11.84a11.08,11.08,0,0,1,1.34,1.83L35,6.13a21.3,21.3,0,0,0-6-4.16Z"/><path class="cls-3" d="M18.25,0a21.74,21.74,0,0,0-5.06,1l-1,7.35a11.54,11.54,0,0,1,2,.67Z"/><path class="cls-2" d="M36.67,8,20.1,14.88A10.71,10.71,0,0,1,20.77,17l19.9-.5A20.24,20.24,0,0,0,36.67,8Z"/><path class="cls-3" d="M20.44,0l-5,9.63A11.4,11.4,0,0,1,17.2,10.9l9.48-9.81A21.8,21.8,0,0,0,20.44,0Z"/><path class="cls-1" d="M3,8a20.43,20.43,0,0,0-3,5.17A11.32,11.32,0,0,1,4.09,9.43Z"/><path class="cls-4" d="M.8,25.84l1.6-.31L4,30l1.71-5.16,1.6-.31-.06,10-1.81.35,0-5.27-1,3.61-.93.18-.95-3.23,0,5.27-1.81.35Z"/><path class="cls-4" d="M8.84,24.28l1.81-.35,0,5,1.92-5.39,1.53-.3-.06,10-1.81.35,0-5L10.35,34l-1.57.3Z"/><path class="cls-4" d="M16.44,24.5l-1.54.3V23.11l4.89-.95v1.69l-1.54.3,0,8.31-1.81.35Z"/><path class="cls-4" d="M22,23.44l-1.54.3V22l4.89-.95v1.69l-1.54.3,0,8.31-1.81.35Z"/><path class="cls-4" d="M25.91,26c0-2.87.17-3.71.67-4.45a2.62,2.62,0,0,1,1.86-1.14,2.22,2.22,0,0,1,1.92.36,2.54,2.54,0,0,1,.75,1.4,5,5,0,0,1,.09.61l-1.81.35a3.43,3.43,0,0,0-.07-.51c-.07-.37-.25-.65-.71-.56a.8.8,0,0,0-.54.37,4.92,4.92,0,0,0-.32,2.33l1.62-.31v1.69l-1.62.31a12.62,12.62,0,0,0,.13,1.84c.09.45.29.7.72.62a.79.79,0,0,0,.62-.5,2.48,2.48,0,0,0,.18-.89l1.84-.36a3.7,3.7,0,0,1-.69,2.41,2.63,2.63,0,0,1-1.8,1,2,2,0,0,1-2.1-.56A2.55,2.55,0,0,1,26,28.65,14.48,14.48,0,0,1,25.91,26Z"/><path class="cls-4" d="M32.3,19.75l2.47-.48a2,2,0,0,1,1.9.31,2,2,0,0,1,.6,1.13,4.75,4.75,0,0,1,.07.93,2.52,2.52,0,0,1-.41,1.65,2.15,2.15,0,0,1-.45.42,1.05,1.05,0,0,1,.44.26,1.35,1.35,0,0,1,.41.81,5.24,5.24,0,0,1,.09,1,3.9,3.9,0,0,1-.56,2.45,2.81,2.81,0,0,1-2,1l-2.65.51Zm2.36,7.85c.78-.15.93-.56.94-1.5a3.32,3.32,0,0,0,0-.67c-.1-.5-.35-.67-.88-.57l-.6.11,0,2.74Zm-.06-4.32c.72-.14.92-.53.93-1.29a2.59,2.59,0,0,0,0-.53c-.08-.39-.27-.59-.82-.49l-.57.11,0,2.29Z"/><path class="cls-4" d="M38.78,18.5l1.81-.35-.06,10-1.81.35Z"/><path class="cls-4" d="M.66,47.31l.16,0C1.6,47.13,2,46.56,2,44.55l0-5.8L6.9,37.8l-.06,10L5,48.16l0-8.31-1.3.25,0,4.12c0,3.58-.63,4.31-2.53,4.68L.64,49Z"/><path class="cls-4" d="M8.71,38a2.65,2.65,0,0,1,1.87-1.15,2,2,0,0,1,2.1.56,2.55,2.55,0,0,1,.58,1.33,14.51,14.51,0,0,1,.14,2.67c0,2.87-.17,3.71-.67,4.45A2.65,2.65,0,0,1,10.86,47a2,2,0,0,1-2.1-.56,2.55,2.55,0,0,1-.58-1.33A14.48,14.48,0,0,1,8,42.47C8.08,39.6,8.21,38.76,8.71,38ZM10,44.76c.09.45.29.7.74.62a.79.79,0,0,0,.53-.37c.25-.37.32-1.11.33-3.22a16.63,16.63,0,0,0-.13-2.64c-.09-.45-.29-.7-.74-.62a.79.79,0,0,0-.53.37c-.25.37-.32,1.11-.33,3.22A16.64,16.64,0,0,0,10,44.76Z"/><path class="cls-4" d="M15.74,37.65l-1.54.3V36.26l4.89-.95V37l-1.54.3,0,8.31L15.69,46Z"/><path class="cls-4" d="M19.93,35.06l4.22-.81v1.69l-2.41.46,0,2.43,2.07-.4v1.69l-2.07.4V43l2.41-.46v1.69l-4.22.81Z"/><path class="cls-4" d="M25.84,33.91l2.45-.47a2.21,2.21,0,0,1,1.82.22,1.9,1.9,0,0,1,.75,1.27A6.48,6.48,0,0,1,31,36.1c0,2.54-.87,3.35-2.48,3.66l-.89.17,0,3.62-1.81.35Zm2.44,4.21c.74-.14.87-.67.88-1.67a4.52,4.52,0,0,0-.05-.77c-.09-.46-.31-.66-.85-.55l-.62.12,0,3Z"/><path class="cls-4" d="M32.23,32.65l4.22-.81v1.69L34,34l0,2.43,2.07-.4V37.7L34,38.1v2.51l2.41-.46v1.69l-4.22.81Z"/><path class="cls-4" d="M38.5,31.42l1.81-.35-.06,10-1.81.35ZM37.34,29.3l1.56-.3v1.69l-1.56.3Zm2.53-.49,1.56-.3V30.2l-1.55.3Z"/><path class="cls-5" d="M38.62,16.8l1.51-.17.88-.1H39.07l-1.11,0H37.9l-1.73,0H36l-13.49.28-1.23,0-1.16,0-1.54,0H18l-1.85,0-4.2.09A5.48,5.48,0,0,0,3,23.41l3.84-.71a2.24,2.24,0,1,1,2.47-.46l27.38-5.08,1.3-.24Z"/></svg>