<svg xmlns="http://www.w3.org/2000/svg" viewBox="0 0 293.48 223.88">
  <defs>
    <style>
      .cls-1 {
        fill: #fce438;
        stroke-width: 2.78px;
      }

      .cls-1, .cls-4 {
        stroke: #000;
        stroke-miterlimit: 10;
      }

      .cls-2 {
        fill: #fc5959;
      }

      .cls-3 {
        fill: #fff;
      }

      .cls-4, .cls-5 {
        fill: none;
      }

      .cls-4 {
        stroke-width: 5px;
      }
    </style>
  </defs>
  <g id="Group_5" data-name="Group 5" transform="translate(-0.01 -0.01)">
    <circle id="Ellipse_1" data-name="Ellipse 1" class="cls-1" cx="20.6" cy="20.6" r="20.6" transform="translate(227.7 181.3)"/>
    <circle id="Ellipse_2" data-name="Ellipse 2" class="cls-1" cx="55.1" cy="55.1" r="55.1" transform="translate(181.9 1.4)"/>
    <g id="Group_3" data-name="Group 3">
      <path id="Path_1" data-name="Path 1" class="cls-2" d="M230.2,44.9H72.8A18.1,18.1,0,0,0,54.7,63h0v66.2H248.3V63a18.1,18.1,0,0,0-18.1-18.1Z"/>
      <path id="Path_2" data-name="Path 2" class="cls-3" d="M54.7,131.6l4.1-2.3H246.1l2.2,9.4v44.6l-4,13.4-5.4,5.2H70.5l-10.3-2.3-5.5-10.5Z"/>
      <path id="Path_3" data-name="Path 3" class="cls-4" d="M232.6,44.9H70.5A15.663,15.663,0,0,0,54.8,60.6h0V186.1a15.969,15.969,0,0,0,15.8,15.8H232.7a15.553,15.553,0,0,0,10.2-3.8,19.2,19.2,0,0,0,1.5-1.4v-.1a15.629,15.629,0,0,0,4-10.5V60.7A15.964,15.964,0,0,0,232.6,44.9Z"/>
      <line id="Line_1" data-name="Line 1" class="cls-4" x1="193.6" transform="translate(54.7 129.3)"/>
    </g>
    <path id="Path_4" data-name="Path 4" class="cls-3" d="M96.8,92.2c-.8,4.2-3.4,7-6.8,7-4.2,0-7.4-4.3-7.4-10.1S85.7,78.9,90,78.9c3.1,0,5.7,2.5,6.8,6.4l7.5-4c-2.2-7.4-7.6-12.2-14.3-12.2-9.1,0-15.9,8.6-15.9,20S81,108.9,90,108.9c8,0,14.1-6.8,15.2-16.8H96.8v.1Z"/>
    <path id="Path_5" data-name="Path 5" class="cls-3" d="M124.8,70.1l-4.4,15.7-5.7-15.7h-9.6L116,96.4c-.9,1.7-2.2,2.3-4.5,2.3h-2.2v9.5H112c6.6,0,10.2-3.4,13.3-12.7L133.7,70Z"/>
    <path id="Path_6" data-name="Path 6" class="cls-3" d="M138.7,70.1v38h10V79.6h10V108h10V70Z"/>
    <path id="Path_7" data-name="Path 7" class="cls-3" d="M185,99V93.3h15.8V84.7H185V79.1h17.1v-9H175.2v38h27.4V99Z"/>
    <path id="Path_8" data-name="Path 8" class="cls-3" d="M223.8,70.1H208.5v38h9.9V97.6h5.4c7.6,0,13.3-5.8,13.3-13.8S231.4,70.1,223.8,70.1Zm-1.2,18.3h-4.2V79.2h4.2c2.6,0,4.3,1.9,4.3,4.6S225.2,88.4,222.6,88.4Z"/>
    <line id="Line_2" data-name="Line 2" class="cls-5" x1="7.6" y2="4" transform="translate(96.7 81.3)"/>
    <g id="Group_4" data-name="Group 4">
      <path id="Path_9" data-name="Path 9" d="M110.6,177.3H99l-3.7-17-3.8,17H79.9l11.7-28.1h8.3Z"/>
      <path id="Path_10" data-name="Path 10" d="M191.1,160.1v17.1h-9.4v-16c0-2.9-1-4.2-3-4.2-2.6,0-3.9,1.8-3.9,5.2v15h-9.1v-16q0-4.2-3-4.2c-2.5,0-3.9,1.8-3.9,5.2v15h-9.4V149.9h6.5l1.3,2.9a10.3,10.3,0,0,1,8-3.7,8.992,8.992,0,0,1,7.8,4,10.773,10.773,0,0,1,8.4-4C187.3,149.1,191.1,153.6,191.1,160.1Z"/>
      <path id="Path_11" data-name="Path 11" d="M142.9,163.1c0-8.7-6.4-14.9-15.5-14.9h-.1c-9.1,0-15.7,6.2-15.7,14.9s6.5,14.9,15.7,14.9h.1C136.4,178,142.9,171.8,142.9,163.1Zm-15.6,7.7c-3.8,0-6.5-3.2-6.5-7.6s2.8-7.6,6.5-7.6h.1c3.7.1,6.4,3.2,6.4,7.6s-2.7,7.6-6.4,7.6Z"/>
      <path id="Path_12" data-name="Path 12" d="M228.4,163.1c0-8.7-6.4-14.9-15.5-14.9h-.1c-9.1,0-15.7,6.2-15.7,14.9s6.5,14.9,15.7,14.9h.1C222,178,228.4,171.8,228.4,163.1Zm-15.6,7.7c-3.8,0-6.5-3.2-6.5-7.6s2.8-7.6,6.5-7.6h.1c3.7.1,6.4,3.2,6.4,7.6s-2.7,7.6-6.4,7.6Z"/>
    </g>
    <circle id="Ellipse_3" data-name="Ellipse 3" class="cls-1" cx="32.8" cy="32.8" r="32.8" transform="translate(1.4 111.6)"/>
    <circle id="Ellipse_4" data-name="Ellipse 4" cx="5.8" cy="5.8" r="5.8" transform="translate(13.3 135.1)"/>
    <path id="Path_13" data-name="Path 13" d="M21.2,156.9a2.182,2.182,0,0,0-.3,3,2.589,2.589,0,0,0,1.1.7c7.9,2.1,25.2,6,28.3,2.5s1.5-19,.5-26.2a2.067,2.067,0,0,0-2.4-1.8,1.905,1.905,0,0,0-1,.5Z"/>
    <path id="Path_14" data-name="Path 14" d="M32.7,138.6a14.961,14.961,0,0,1,.6-2.9,20.035,20.035,0,0,1,1-2.6,14.544,14.544,0,0,1,3.3-4.5,18.394,18.394,0,0,1,2.2-1.7l1.2-.7,1.2-.6.6-.3.6-.2,1.3-.4c.9-.2,1.8-.4,2.6-.5l.1.8c-.8.3-1.6.5-2.4.8l-1.2.5-.6.3-.6.3-1.1.6-1,.8a10.253,10.253,0,0,0-1.7,1.7,10.977,10.977,0,0,0-2.4,4.2,9.766,9.766,0,0,0-.6,2.3,16.413,16.413,0,0,0-.2,2.3Z"/>
    <path id="Path_15" data-name="Path 15" class="cls-3" d="M43.4,143c-.8-1-3.8,1.8-7.7,4.9s-7.3,5.5-6.5,6.5,4.6-.8,8.5-3.9S44.1,143.9,43.4,143Z"/>
    <circle id="Ellipse_5" data-name="Ellipse 5" class="cls-3" cx="1.1" cy="1.1" r="1.1" transform="translate(19.3 136.7)"/>
  </g>
</svg>
