<svg id="Group_54" data-name="Group 54" xmlns="http://www.w3.org/2000/svg" viewBox="0 0 213.275 152.854">
  <defs>
    <style>
      .cls-1 {
        fill: #3b36e0;
      }

      .cls-2 {
        fill: #febd35;
      }

      .cls-3 {
        fill: #fff;
      }

      .cls-4, .cls-5, .cls-6, .cls-7 {
        fill: none;
      }

      .cls-4 {
        stroke: #5773ff;
        stroke-width: 5px;
      }

      .cls-4, .cls-5, .cls-6 {
        stroke-miterlimit: 10;
      }

      .cls-5, .cls-6 {
        stroke: #febd35;
      }

      .cls-5 {
        stroke-width: 2px;
      }

      .cls-6 {
        stroke-width: 1.195px;
      }
    </style>
  </defs>
  <g id="Group_36" data-name="Group 36" transform="translate(58.146 102.143)">
    <path id="Path_117" data-name="Path 117" class="cls-1" d="M111.893,194.922l-4.993-2.33,5.382-1L113,186.1l2.663,4.827,5.382-1-3.773,3.995,2.663,4.827-4.993-2.33-3.773,3.995Z" transform="translate(-105.735 -184.99)"/>
    <path id="Path_118" data-name="Path 118" class="cls-2" d="M112.29,186.319l2.275,4.106,4.605-.888-3.218,3.44,2.275,4.106-4.272-2-3.218,3.44.61-4.661-4.272-2,4.605-.888.61-4.661m-.444-2.219-.277,2.108-.555,4.161-4.106.777-2.108.388,1.942.888,3.773,1.775-.555,4.161-.277,2.108,1.443-1.554,2.885-3.052,3.773,1.775,1.942.888-1-1.886-2-3.662,2.885-3.052,1.443-1.553-2.108.388-4.106.777-2-3.662-1-1.775Z" transform="translate(-104.8 -184.1)"/>
  </g>
  <g id="Group_37" data-name="Group 37" transform="translate(67.633 123.005)">
    <path id="Path_119" data-name="Path 119" class="cls-1" d="M127.017,229.159l-3.717-.888,3.551-1.443L126.573,223l2.5,2.885,3.5-1.443-2,3.273,2.5,2.941-3.717-.943-2,3.273Z" transform="translate(-122.523 -222.279)"/>
    <path id="Path_120" data-name="Path 120" class="cls-2" d="M126.228,223.143l2.108,2.5,3-1.221-1.72,2.774,2.108,2.5-3.163-.777-1.72,2.774-.222-3.273-3.162-.777,3-1.221-.222-3.273m-.555-1.443.111,1.5.222,2.885-2.719,1.11-1.387.555,1.443.333,2.83.666.222,2.885.111,1.5.777-1.276,1.554-2.5,2.83.666,1.443.333-.943-1.11-1.886-2.219,1.554-2.5.777-1.276-1.387.555-2.719,1.11-1.886-2.219-.943-1Z" transform="translate(-121.9 -221.7)"/>
  </g>
  <g id="Group_38" data-name="Group 38" transform="translate(65.636 117.789)">
    <path id="Path_121" data-name="Path 121" class="cls-2" d="M120.131,212.3l1.443,1.664,2-.832-1.165,1.886,1.443,1.664-2.108-.555-1.165,1.886-.166-2.164L118.3,215.3l2-.832Z" transform="translate(-118.3 -212.3)"/>
  </g>
  <g id="Group_39" data-name="Group 39" transform="translate(60.309 120.12)">
    <path id="Path_122" data-name="Path 122" class="cls-2" d="M109.421,216.5l.555.61.832-.333-.444.777.555.61-.888-.166-.444.721-.055-.832-.832-.222.777-.333Z" transform="translate(-108.7 -216.5)"/>
  </g>
  <g id="Group_40" data-name="Group 40" transform="translate(97.316 113.684)">
    <path id="Path_123" data-name="Path 123" class="cls-1" d="M182.56,215.677l-5.16-1.886,5.271-1.5.222-5.493,3.052,4.55,5.326-1.5-3.384,4.328,3.052,4.605-5.16-1.886-3.44,4.328Z" transform="translate(-176.29 -205.746)"/>
    <path id="Path_124" data-name="Path 124" class="cls-2" d="M182.335,207.008l2.608,3.884,4.494-1.276-2.885,3.717,2.608,3.884-4.383-1.609-2.885,3.717.166-4.716L177.675,213l4.494-1.276.166-4.716m-.61-2.108-.055,2.108-.166,4.217-4.05,1.165-2.053.555,2,.721,3.939,1.443-.166,4.217-.055,2.108,1.332-1.664,2.608-3.273,3.939,1.443,2,.721-1.165-1.775-2.33-3.5,2.608-3.273,1.332-1.664-2.053.555-4.05,1.165-2.33-3.5-1.276-1.775Z" transform="translate(-175.4 -204.9)"/>
  </g>
  <g id="Group_41" data-name="Group 41" transform="translate(97.15 133.99)">
    <path id="Path_125" data-name="Path 125" class="cls-2" d="M175.821,241.5l.555.666.777-.333-.444.721.555.666-.832-.222-.444.777-.055-.888-.832-.222.777-.277Z" transform="translate(-175.1 -241.5)"/>
  </g>
  <g id="Group_42" data-name="Group 42" transform="translate(106.637 127.832)">
    <path id="Path_126" data-name="Path 126" class="cls-2" d="M196.084,230.622l-.666,1.609,1.332,1.11-1.72-.111-.666,1.609-.444-1.72-1.72-.166,1.5-.888-.388-1.664,1.332,1.11Z" transform="translate(-192.2 -230.4)"/>
  </g>
  <g id="Group_43" data-name="Group 43" transform="translate(115.404 117.512)">
    <path id="Path_127" data-name="Path 127" class="cls-2" d="M211.884,212.022l-.666,1.609,1.332,1.165-1.72-.166-.721,1.609-.388-1.664-1.72-.166,1.5-.888-.388-1.72,1.332,1.165Z" transform="translate(-208 -211.8)"/>
  </g>
  <g id="Group_44" data-name="Group 44" transform="translate(0 31.681)">
    <path id="Path_128" data-name="Path 128" class="cls-1" d="M83.192,153.576l-4.05,4.55,2.5-14.314-4.272,4.272,2.885-16.589H1.3l4.217-15.036,5.1-18.254H5.184L16.946,81.893H94.677L100.558,59.7l.666,1.165a26.37,26.37,0,0,0,43.609,2.608l1.332-1.72L143,81.893h11.263c23.636,0,58.312.055,58.312.055h.721l-3.884,16.534-3.884,3.107-17.2,13.649h15.313l-2.219,15.868V143.7H105.607v-5.992l-9.876,15.7-.5-5.215-7.768,12.539-2.219-1.72-8.378,15.313ZM12.951,94.266l.111-.333-.277.333Z" transform="translate(-0.579 -58.257)"/>
    <path id="Path_129" data-name="Path 129" class="cls-2" d="M100.146,59.93A26.942,26.942,0,0,0,144.7,62.593l-2.941,18.642h11.818c23.636,0,58.368.055,58.368.055l-3.662,15.646-3.773,3-18.42,14.647h16.256l-2.164,15.258v12.1h-94.6v-7.324L95.541,150.588l-.5-5.215L86.719,158.8l-2.219-1.72-6.1,11.1,5.493-17.865-4.439,5.049,2.441-14.093-4.272,4.272L80.339,130H1.443l1-3.551,3-10.819,4.938-17.588.388-1.387H5.715l3.163-4.383,6.935-9.654.832-1.165H94.487l5.659-21.527M11.1,93.663h1.664l1.276-3.995L11.1,93.663M99.7,57.1l-.666,2.552L93.6,80.125H16.09l-.333.444-.832,1.165L7.989,91.388,4.827,95.771,3.551,97.547h5.77L4.383,115.135,1.332,125.954l-1,3.551L0,130.892H79.007l-2.5,14.259-.61,3.44,2.5-2.441,1.831-1.775L78.4,155.082l-.666,3.884,2.608-2.941,1.054-1.165L77.4,167.843,74.18,178.274l5.271-9.6,5.437-9.987,1.165.943,1,.777.666-1.054,6.547-10.6.166,1.942.333,3.218,1.72-2.774,7.989-12.705v4.605h96.817V129.949l2.164-15.2.166-1.276h-14.37l15.923-12.65,3.717-2.941.277-.222.111-.388,3.662-15.646.333-1.387h-1.387c-.333,0-35.009-.055-58.368-.055H142.978L145.7,62.87l.666-4.272-2.663,3.44a25.52,25.52,0,0,1-20.418,9.987,25.8,25.8,0,0,1-22.193-12.65L99.7,57.1Z" transform="translate(0 -57.1)"/>
  </g>
  <path id="Path_130" data-name="Path 130" class="cls-3" d="M223.4,115.528l8.933-12.428H270.5l-.333,1.664a33.41,33.41,0,0,1-4.439,10.1l-.388.666Z" transform="translate(-99.452 -45.898)"/>
  <path id="Path_131" data-name="Path 131" class="cls-1" d="M266.559,103.374a32.812,32.812,0,0,1-4.272,9.654H223.893l6.935-9.654Zm3.384-2.774H229.33l-.832,1.165-6.935,9.654L218.4,115.8h45.385l.832-1.276a35.886,35.886,0,0,0,4.661-10.6l.666-3.329Z" transform="translate(-97.226 -44.785)"/>
  <path id="Path_132" data-name="Path 132" class="cls-3" d="M236,160.581l3.5-12.595,5.215-18.587h16.256l-5.437,19.363-3.273,11.818Z" transform="translate(-105.061 -57.606)"/>
  <path id="Path_133" data-name="Path 133" class="cls-1" d="M257.623,129.674l-4.938,17.588-3,10.819H236.317l3-10.819,4.938-17.588Zm3.662-2.774H242.143l-.555,2.053-4.938,17.588L233.6,157.36l-1,3.5h19.141l.555-2.053,3-10.819L260.23,130.4l1.054-3.5Z" transform="translate(-103.548 -56.493)"/>
  <path id="Path_134" data-name="Path 134" class="cls-3" d="M107,115.528l3.5-12.428h17.311l-3.44,12.428Z" transform="translate(-47.634 -45.898)"/>
  <path id="Path_135" data-name="Path 135" class="cls-1" d="M124.506,103.374l-2.719,9.654H107.306l2.719-9.654Zm3.662-2.774h-20.2l-.555,2.053-2.719,9.654-1,3.5h20.251l.555-2.053,2.663-9.6,1-3.551Z" transform="translate(-46.165 -44.785)"/>
  <path id="Path_136" data-name="Path 136" class="cls-3" d="M90.2,160.581l3.551-12.595L98.966,129.4h17.311l-4.938,17.588h21.416l-11.041,13.593Z" transform="translate(-40.155 -57.606)"/>
  <path id="Path_137" data-name="Path 137" class="cls-1" d="M112.932,129.674l-4.938,17.588H128.3l-8.766,10.819H90.517l3-10.819,4.938-17.588Zm3.662-2.774H96.343l-.555,2.053L90.85,146.541,87.8,157.36l-1,3.5h34.011l.832-1.054,8.766-10.819,3.662-4.494H111.6L115.54,130.4l1.054-3.5Z" transform="translate(-38.641 -56.493)"/>
  <line id="Line_2" data-name="Line 2" class="cls-4" x1="0.555" transform="translate(4.55 101.588)"/>
  <path id="Path_138" data-name="Path 138" class="cls-3" d="M299,115.484l.555-1.831a39.418,39.418,0,0,1,5.16-10.1l.444-.555h38.006l-3.717,12.428H299Z" transform="translate(-133.107 -45.853)"/>
  <path id="Path_139" data-name="Path 139" class="cls-1" d="M339.775,103.374l-2.885,9.654H299.328a36.194,36.194,0,0,1,4.938-9.654Zm3.717-2.774H302.935l-.832,1.054a36.569,36.569,0,0,0-5.437,10.486l-1.165,3.606h43.387l.61-2,2.885-9.654,1.11-3.5Z" transform="translate(-131.549 -44.785)"/>
  <path id="Path_140" data-name="Path 140" class="cls-3" d="M288.8,160.472l3.44-12.151L314.821,130.4h19.585l-22.138,17.588H329.8l-3.5,12.484Z" transform="translate(-128.567 -58.051)"/>
  <path id="Path_141" data-name="Path 141" class="cls-1" d="M331.131,130.564l-22.193,17.588H327.8l-3.052,10.819H289.019l3-10.819,22.193-17.588ZM335.9,128.9H313.654l-.444.333-22.193,17.588-.444.333-.166.5-3,10.819-.61,2.108h39.226l.333-1.221,3.052-10.819.61-2.108H313.709l18.42-14.647L335.9,128.9Z" transform="translate(-127.676 -57.383)"/>
  <path id="Path_142" data-name="Path 142" class="cls-3" d="M5.9,160.581l3.5-12.595L14.611,129.4H55.89v1.387c.055,3.44-2.608,5.493-4.383,6.491,2.275,3.995,2.885,7.879,1.775,11.485-2.275,7.768-11.374,11.54-11.762,11.707l-.277.111Zm28.019-13.593a1.332,1.332,0,1,0,0-2.663h-8.1l-.721,2.608h8.822Z" transform="translate(-2.627 -57.606)"/>
  <path id="Path_143" data-name="Path 143" class="cls-1" d="M53.045,129.674c.055,4.106-4.993,5.881-4.993,5.881,3.052,4.605,3.384,8.489,2.441,11.707-2.108,7.213-10.986,10.819-10.986,10.819H6.217l3-10.819,4.938-17.588H53.045ZM21.7,147.262H32.35a2.719,2.719,0,1,0,0-5.437H23.195l-1.5,5.437ZM55.819,126.9H12.043l-.555,2.053L6.55,146.541,3.5,157.36l-1,3.5H40.006l.5-.222c.388-.166,10.1-4.217,12.595-12.595a15.324,15.324,0,0,0-1.276-11.374,8.517,8.517,0,0,0,3.939-7.046l.055-2.719Z" transform="translate(-1.113 -56.493)"/>
  <path id="Path_144" data-name="Path 144" class="cls-3" d="M15.2,115.528,24.133,103.1H54.315l.166.055c.277.055,6.325,1.5,5.6,11.1l-.111,1.276Z" transform="translate(-6.767 -45.898)"/>
  <path id="Path_145" data-name="Path 145" class="cls-1" d="M51.967,103.374s5.16,1.11,4.494,9.654H15.682l6.935-9.654ZM52.3,100.6H21.23l-.832,1.165-6.935,9.654L10.3,115.8H59.014l.222-2.552c.832-10.819-6.38-12.484-6.658-12.539L52.3,100.6Z" transform="translate(-4.585 -44.785)"/>
  <line id="Line_3" data-name="Line 3" class="cls-5" x1="83.39" transform="translate(116.791 104.363)"/>
  <g id="Group_45" data-name="Group 45" transform="translate(129.996 107.303)">
    <path id="Path_146" data-name="Path 146" class="cls-2" d="M235.465,193.8h6.27v7.546h-2v-5.715h-2.386l-.111,3.273c-.055,1.387-.61,2.552-1.886,2.552a7.073,7.073,0,0,1-1.054-.055v-1.942h.388c.333,0,.555-.222.61-.666Z" transform="translate(-234.3 -193.578)"/>
    <path id="Path_147" data-name="Path 147" class="cls-2" d="M259.9,197.339a4.167,4.167,0,0,1,8.322,0h-2a2.165,2.165,0,1,0-2.164,2.108,1.969,1.969,0,0,0,2.164-2.108h2a4.167,4.167,0,0,1-8.322,0Z" transform="translate(-245.696 -193.4)"/>
    <path id="Path_148" data-name="Path 148" class="cls-2" d="M285.6,193.8h7.1v1.72H290.15v5.826h-2V195.52H285.6Z" transform="translate(-257.137 -193.578)"/>
    <path id="Path_149" data-name="Path 149" class="cls-2" d="M309,197.339a4.167,4.167,0,0,1,8.322,0h-2a2.165,2.165,0,1,0-2.164,2.108,1.969,1.969,0,0,0,2.164-2.108h2a4.167,4.167,0,0,1-8.322,0Z" transform="translate(-267.555 -193.4)"/>
  </g>
  <g id="Group_46" data-name="Group 46" transform="translate(102.476)">
    <path id="Path_150" data-name="Path 150" class="cls-2" d="M205.506,3.884a16.922,16.922,0,1,1-16.922,16.922A16.918,16.918,0,0,1,205.506,3.884m0-3.884a20.806,20.806,0,1,0,20.806,20.806A20.814,20.814,0,0,0,205.506,0Z" transform="translate(-184.7)"/>
  </g>
  <line id="Line_4" data-name="Line 4" class="cls-6" x1="0.222" y2="1.11" transform="translate(144.643 36.064)"/>
  <line id="Line_5" data-name="Line 5" class="cls-6" x1="0.388" y2="1.609" transform="translate(100.146 32.901)"/>
  <g id="Group_47" data-name="Group 47" transform="translate(79.895 38.172)">
    <path id="Path_151" data-name="Path 151" class="cls-2" d="M144,144.756,166.8,68.8l4.106,1.387-26.743,74.624Z" transform="translate(-144 -68.8)"/>
  </g>
  <g id="Group_48" data-name="Group 48" transform="translate(81.837 42.278)">
    <path id="Path_152" data-name="Path 152" class="cls-2" d="M147.5,157.093,173.854,76.2l4.106,1.443-30.293,79.506Z" transform="translate(-147.5 -76.2)"/>
  </g>
  <g id="Group_49" data-name="Group 49" transform="translate(80.838 44.83)">
    <path id="Path_153" data-name="Path 153" class="cls-2" d="M145.7,172.679,180.543,80.8l3.995,1.609-38.671,90.326Z" transform="translate(-145.7 -80.8)"/>
  </g>
  <g id="Group_50" data-name="Group 50" transform="translate(88.051 44.719)">
    <path id="Path_154" data-name="Path 154" class="cls-2" d="M158.7,163.713,196.539,80.6l3.939,1.886-41.612,81.282Z" transform="translate(-158.7 -80.6)"/>
  </g>
  <g id="Group_51" data-name="Group 51" transform="translate(97.094 39.393)">
    <path id="Path_155" data-name="Path 155" class="cls-2" d="M175,149.952,214.615,71l3.828,2.053-43.332,76.954Z" transform="translate(-175 -71)"/>
  </g>
  <g id="Group_52" data-name="Group 52" transform="translate(45.496 109.356)">
    <path id="Path_156" data-name="Path 156" class="cls-1" d="M87.939,205.28l-4.439-.111,3.662-2.5L85.886,198.4l3.551,2.719,3.606-2.5L91.6,202.783l3.5,2.719-4.439-.111-1.5,4.161Z" transform="translate(-82.668 -197.679)"/>
    <path id="Path_157" data-name="Path 157" class="cls-2" d="M85.717,198.6l3,2.275,3.107-2.108-1.276,3.551,3,2.275-3.773-.111-1.276,3.551-1.054-3.606-3.773-.111,3.107-2.108L85.717,198.6m-1-1.5.5,1.664.943,3.218-2.774,1.886L82,204.812l1.72.055,3.384.111.943,3.218.5,1.664.555-1.609,1.11-3.162,3.384.111,1.72.055L93.984,204.2l-2.663-2.053,1.11-3.163.555-1.609-1.387.943-2.774,1.886-2.663-2.053L84.719,197.1Z" transform="translate(-82 -197.1)"/>
  </g>
  <g id="Group_53" data-name="Group 53" transform="translate(109.689 3.669)">
    <path id="Path_158" data-name="Path 158" class="cls-2" d="M227.439,17.48a17.62,17.62,0,0,0-29.295-5.1c-.166.721.222,1.5.5,1.11a6.013,6.013,0,0,0-.444,1.054l-.388.166c-.055.444-.055.832-.111,1.276h0v.777a22.686,22.686,0,0,0,.721,5.548l3.884-1.609a42.422,42.422,0,0,0,1.886,5.881l-3.273,1.387c.222.333.444.666.666.943l3.107-1.276a36.574,36.574,0,0,0,2.885,5.493l-1.387.555c.333.277.721.5,1.11.777l.888-.388c.388.555.777,1.054,1.11,1.554.777.388,1.554.721,2.386,1.054a23.513,23.513,0,0,1-2.441-3.052l4.494-1.886,1.942,4.55-2.164.888a12.691,12.691,0,0,0,2,.388l.61-.277.166.388a9.9,9.9,0,0,0,1.276.111l-.388-.943,2.441-1.054a6.535,6.535,0,0,1-.555,2,17.078,17.078,0,0,0,3.773-.388,17.6,17.6,0,0,0,4.716-6.6A17.07,17.07,0,0,0,227.439,17.48Zm-25.411-6.6a9.191,9.191,0,0,0-.444,2.275l-1.831.777A11.535,11.535,0,0,1,202.028,10.878ZM198.2,21.2a16.36,16.36,0,0,1,.943-5.77l2.441-1v.61a27.76,27.76,0,0,0,.5,4.55Zm27.963-3.828-2.83,1.165A22.692,22.692,0,0,0,220,13.208l2.441-1A17.008,17.008,0,0,1,226.163,17.369Zm-13.038-2.441-4.494,1.886-1.942-4.55,3-1.276c.277.222.5.5.777.721A19.568,19.568,0,0,1,213.124,14.928ZM210.9,10.489l2.441-1a16.036,16.036,0,0,1,4.771,3.384l-3.884,1.609a27.59,27.59,0,0,0-2.885-3.551A3.347,3.347,0,0,0,210.9,10.489Zm2.885,5.382a36.574,36.574,0,0,1,2.885,5.493l-5.215,2.164-2.386-5.715Zm1.054-.444,4.05-1.72a20.442,20.442,0,0,1,3.384,5.271l-4.55,1.886A38.782,38.782,0,0,0,214.844,15.427Zm.943-6.991c.555.166,1.11.333,1.664.555a15.581,15.581,0,0,1,4.05,2.386l-2.275.943a17.247,17.247,0,0,0-4.05-3.218c-.166-.111-.333-.166-.5-.277Zm-1.942-.444-.5.222c-.388-.166-.721-.277-1.054-.388A14.76,14.76,0,0,1,213.845,7.993Zm-2.053.888-1.831.777a11.607,11.607,0,0,0-1.942-1.276A11.232,11.232,0,0,1,211.793,8.88Zm-3.052,1.276-2.441,1-.943-2.219A4.721,4.721,0,0,1,208.741,10.156ZM204.3,9.38l.943,2.219L202.8,12.653A4.781,4.781,0,0,1,204.3,9.38Zm-1.609,5.6V13.929l3-1.276,1.942,4.55-4.494,1.886A22.062,22.062,0,0,1,202.693,14.983Zm.666,5.271,4.716-1.942,2.386,5.715-5.215,2.164A40.469,40.469,0,0,1,203.359,20.254Zm5.215,12.428a36.574,36.574,0,0,1-2.885-5.493l5.215-2.164,2.386,5.715Zm3.384-8.1,5.215-2.164a37.885,37.885,0,0,1,1.886,5.881l-4.716,1.942Zm7.712,10.042-3,1.276-1.942-4.55,4.494-1.886a22.062,22.062,0,0,1,.444,4.106A3.354,3.354,0,0,1,219.671,34.624Zm-1.5-12.65,4.55-1.942a20.608,20.608,0,0,1,1.387,6.1l-4.05,1.72A37.887,37.887,0,0,0,218.173,21.974Zm2.164,15.757a9.191,9.191,0,0,0,.444-2.275l1.831-.777A12.51,12.51,0,0,1,220.337,37.731Zm2.941-4.605-2.441,1v-.61a27.76,27.76,0,0,0-.5-4.55l3.884-1.609A17.239,17.239,0,0,1,223.277,33.126Zm.444,1.942a6.014,6.014,0,0,0,.444-1.054l.5-.222C224.387,34.236,224.054,34.624,223.721,35.068Zm2.719-4.55c-.222.555-.5,1.054-.777,1.609l-1.054.444.166-.5a19.471,19.471,0,0,0,.555-5.1l2.275-.943A16.279,16.279,0,0,1,226.44,30.518Zm-1.165-4.827a22.653,22.653,0,0,0-1.443-6.1l2.83-1.165a16.112,16.112,0,0,1,1.054,6.214Z" transform="translate(-197.7 -6.612)"/>
  </g>
  <path id="Path_159" data-name="Path 159" class="cls-2" d="M253.8,35.5" transform="translate(-112.985 -15.804)"/>
  <line id="Line_6" data-name="Line 6" class="cls-7" x2="15.147" y2="36.23" transform="translate(116.069 3.107)"/>
  <line id="Line_7" data-name="Line 7" class="cls-7" x2="15.202" y2="36.23" transform="translate(114.849 3.606)"/>
  <line id="Line_8" data-name="Line 8" class="cls-7" x1="1.165" y2="0.499" transform="translate(116.458 6.88)"/>
</svg>
